<?xml version="1.0" encoding="UTF-8"?>
<svg version="1.1" xmlns="http://www.w3.org/2000/svg" width="171" height="172">
<path d="M0 0 C1.58101037 1.35367554 3.14410211 2.72859239 4.6875 4.125 C5.44546875 4.79015625 6.2034375 5.4553125 6.984375 6.140625 C16.62187815 15.11347276 23.49815402 26.68839251 27.6875 39.125 C28.00589844 40.06988281 28.32429687 41.01476563 28.65234375 41.98828125 C34.4345716 62.53251016 30.85717515 84.02231258 20.82421875 102.49609375 C17.96071097 107.50236246 14.58348252 111.8789005 10.6875 116.125 C10.02363281 116.88039062 9.35976562 117.63578125 8.67578125 118.4140625 C-4.62790922 132.7259809 -23.67407995 141.49931145 -43.15625 142.41015625 C-66.50439121 143.03865719 -85.64893514 136.3327577 -103.02734375 120.6796875 C-118.28502782 106.04148835 -127.10388388 87.15159229 -127.78564453 65.97094727 C-127.9936127 43.93199306 -120.99238345 24.80592688 -105.9375 8.5625 C-105.07125 7.758125 -104.205 6.95375 -103.3125 6.125 C-102.71308594 5.53203125 -102.11367187 4.9390625 -101.49609375 4.328125 C-74.12412112 -21.68281031 -29.69323604 -22.90751185 0 0 Z " fill="#D8D9D9" transform="translate(135.3125,22.875)"/>
<path d="M0 0 C1.25031761 0.36623474 1.25031761 0.36623474 2.52589417 0.73986816 C5.1670883 1.5156956 7.80419877 2.30448988 10.44140625 3.09375 C12.23997972 3.62456154 14.03880564 4.15451847 15.83789062 4.68359375 C20.22954525 5.97710926 24.61758694 7.28226177 29.00390625 8.59375 C29.49890625 11.06875 29.49890625 11.06875 30.00390625 13.59375 C28.72515625 13.84125 27.44640625 14.08875 26.12890625 14.34375 C22.76875709 15.09807624 22.76875709 15.09807624 20.56640625 17.65625 C20.28796875 18.6153125 20.28796875 18.6153125 20.00390625 19.59375 C19.00390625 20.59375 19.00390625 20.59375 15.40625 20.69140625 C13.91793758 20.6847322 12.42964193 20.67277183 10.94140625 20.65625 C10.18279297 20.65173828 9.42417969 20.64722656 8.64257812 20.64257812 C6.76298754 20.6307568 4.88343726 20.61282078 3.00390625 20.59375 C3.49890625 21.58375 3.49890625 21.58375 4.00390625 22.59375 C5.45796875 22.5628125 5.45796875 22.5628125 6.94140625 22.53125 C10.00390625 22.59375 10.00390625 22.59375 11.00390625 23.59375 C11.10958102 24.9880699 11.18839548 26.38446674 11.25390625 27.78125 C11.75124808 32.91773123 13.49365173 34.91226356 17.00390625 38.59375 C20.07899845 43.50329375 19.70548089 49.00978858 19.00390625 54.59375 C16.67115041 60.5702319 12.59265252 64.59769489 7.02075195 67.69677734 C2.42889882 69.06203334 -2.00812728 68.72314099 -6.765625 68.5703125 C-7.80176437 68.54528656 -8.83790375 68.52026062 -9.90544128 68.49447632 C-13.20683428 68.41246631 -16.50761207 68.31580237 -19.80859375 68.21875 C-22.05010528 68.16049109 -24.29164187 68.10318823 -26.53320312 68.046875 C-32.02117223 67.90691584 -37.50870914 67.75493125 -42.99609375 67.59375 C-43.9303302 64.58343256 -44.04059286 63.72724732 -42.99609375 60.59375 C-37.55109375 60.09875 -37.55109375 60.09875 -31.99609375 59.59375 C-33.31609375 58.93375 -34.63609375 58.27375 -35.99609375 57.59375 C-35.99609375 46.37375 -35.99609375 35.15375 -35.99609375 23.59375 C-36.65609375 23.26375 -37.31609375 22.93375 -37.99609375 22.59375 C-37.66609375 21.93375 -37.33609375 21.27375 -36.99609375 20.59375 C-39.30609375 20.59375 -41.61609375 20.59375 -43.99609375 20.59375 C-44.03863731 18.59420254 -44.03690158 16.59333364 -43.99609375 14.59375 C-43.66609375 14.26375 -43.33609375 13.93375 -42.99609375 13.59375 C-45.96609375 13.92375 -48.93609375 14.25375 -51.99609375 14.59375 C-52.32609375 12.94375 -52.65609375 11.29375 -52.99609375 9.59375 C-46.21770874 6.94580946 -39.32929226 4.70114505 -32.38696289 2.5222168 C-31.08154052 2.11057067 -29.77749629 1.69452916 -28.47485352 1.27416992 C-26.56709215 0.65867808 -24.65466719 0.05770177 -22.7421875 -0.54296875 C-21.61482178 -0.90092529 -20.48745605 -1.25888184 -19.32592773 -1.62768555 C-12.31241652 -3.26754824 -6.71148713 -2.03108166 0 0 Z " fill="#BADCE2" transform="translate(98.99609375,40.40625)"/>
<path d="M0 0 C1.32 0 2.64 0 4 0 C4.495 2.475 4.495 2.475 5 5 C6.51980469 4.93039063 6.51980469 4.93039063 8.0703125 4.859375 C9.42184532 4.82183242 10.77341028 4.78543494 12.125 4.75 C12.79015625 4.71648437 13.4553125 4.68296875 14.140625 4.6484375 C19.29608963 4.54734996 22.03520984 5.78655492 26 9 C30.80497016 13.66501957 33.28987364 18.04602649 33.4375 24.75 C33.33491907 30.75831136 31.95963386 34.50879885 28 39 C22.43077521 44.29076355 17.73081169 45.23418079 10.2676239 45.0741272 C8.7642321 45.02583267 8.7642321 45.02583267 7.23046875 44.9765625 C6.19432938 44.95153656 5.15819 44.92651062 4.09065247 44.90072632 C0.78925947 44.81871631 -2.51151832 44.72205237 -5.8125 44.625 C-8.05401153 44.56674109 -10.29554812 44.50943823 -12.53710938 44.453125 C-18.02507848 44.31316584 -23.51261539 44.16118125 -29 44 C-29.5625 42.0625 -29.5625 42.0625 -30 40 C-28.25493385 38.25493385 -25.80960857 38.76717216 -23.43359375 38.68359375 C-22.30888672 38.64169922 -21.18417969 38.59980469 -20.02539062 38.55664062 C-18.84138672 38.51732422 -17.65738281 38.47800781 -16.4375 38.4375 C-15.24962891 38.39431641 -14.06175781 38.35113281 -12.83789062 38.30664062 C-9.89205216 38.20016454 -6.9461257 38.09815159 -4 38 C-4.97259766 36.45119141 -4.97259766 36.45119141 -5.96484375 34.87109375 C-8.91499868 29.68648653 -8.92574247 24.83217758 -8 19 C-6.51698316 15.58906126 -4.63596713 12.63596713 -2 10 C-1.79300437 8.50503158 -1.63320741 7.0033408 -1.5 5.5 C-1.11111111 1.11111111 -1.11111111 1.11111111 0 0 Z " fill="#0F0E10" transform="translate(85,64)"/>
<path d="M0 0 C4.73963177 2.14708883 7.21570938 4.64006489 9.703125 9.31640625 C11.22223261 13.87372909 11.6685095 18.01529578 9.796875 22.4765625 C6.59491339 27.96710564 2.82296369 31.27646002 -3.296875 33.31640625 C-9.76395582 33.85532965 -12.99281397 33.09044968 -18.296875 29.31640625 C-20.609375 26.81640625 -20.609375 26.81640625 -22.296875 24.31640625 C-22.709375 23.71828125 -23.121875 23.12015625 -23.546875 22.50390625 C-25.2442026 17.55336743 -24.8006949 13.49198603 -22.796875 8.81640625 C-22.301875 7.99140625 -21.806875 7.16640625 -21.296875 6.31640625 C-20.966875 6.31640625 -20.636875 6.31640625 -20.296875 6.31640625 C-20.33167969 7.74533203 -20.33167969 7.74533203 -20.3671875 9.203125 C-20.38523437 10.45738281 -20.40328125 11.71164063 -20.421875 13.00390625 C-20.45667969 14.86595703 -20.45667969 14.86595703 -20.4921875 16.765625 C-20.30407308 20.18554508 -19.91550748 22.32487427 -18.296875 25.31640625 C-12.95370382 29.35104572 -8.88011047 29.85381323 -2.296875 29.31640625 C-2.90015625 29.26742187 -3.5034375 29.2184375 -4.125 29.16796875 C-4.92421875 29.09320313 -5.7234375 29.0184375 -6.546875 28.94140625 C-7.33578125 28.87179688 -8.1246875 28.8021875 -8.9375 28.73046875 C-11.296875 28.31640625 -11.296875 28.31640625 -15.296875 26.31640625 C-14.966875 17.73640625 -14.636875 9.15640625 -14.296875 0.31640625 C-10.02940186 -1.81733032 -4.48298171 -1.33422075 0 0 Z " fill="#D2D8D9" transform="translate(104.296875,72.68359375)"/>
<path d="M0 0 C7.26 0 14.52 0 22 0 C22 0.66 22 1.32 22 2 C21.01 2.495 21.01 2.495 20 3 C19.09656316 4.88263881 19.09656316 4.88263881 18.375 7.0625 C18.11460938 7.79597656 17.85421875 8.52945313 17.5859375 9.28515625 C17.39257812 9.85105469 17.19921875 10.41695312 17 11 C18.32 11.66 19.64 12.32 21 13 C20.38125 13.7425 19.7625 14.485 19.125 15.25 C15.82679085 19.51827066 14.69543386 22.31250568 14.625 27.75 C14.58246094 29.22726563 14.58246094 29.22726563 14.5390625 30.734375 C14.96252829 34.98444459 14.96252829 34.98444459 19 42 C10.42 42 1.84 42 -7 42 C-7 41.34 -7 40.68 -7 40 C-1.555 39.505 -1.555 39.505 4 39 C2.68 38.34 1.36 37.68 0 37 C0 24.79 0 12.58 0 0 Z " fill="#C8D6D8" transform="translate(63,61)"/>
<path d="M0 0 C-0.57352893 3.87132028 -2.48704352 6.08172796 -5 9 C-3.68 9 -2.36 9 -1 9 C-0.67 8.01 -0.34 7.02 0 6 C3.25118786 6 5.33801422 6.37948089 7.74609375 8.63671875 C8.93749132 10.02977827 10.10490774 11.44363467 11.25 12.875 C12.88269593 14.85755935 14.5850185 16.48529422 16.5 18.1875 C19 21 19 21 18.875 23.875 C18.58625 24.57625 18.2975 25.2775 18 26 C14.7839029 25.68932586 13.37249247 25.41186434 11.16603088 22.97218323 C10.54864548 22.15837692 9.93126007 21.34457062 9.29516602 20.50610352 C4.51532186 15.54336234 0.17853279 14.98153552 -6.38437557 14.83538151 C-8.83155271 14.82763771 -11.27579944 14.86423263 -13.72265625 14.90234375 C-15.43616944 14.89668351 -17.1496737 14.88706314 -18.86314392 14.87367249 C-23.34687803 14.84916487 -27.82869971 14.8780394 -32.31225586 14.91845703 C-36.89768809 14.95020703 -41.48288331 14.93089137 -46.06835938 14.91601562 C-55.04606526 14.89434546 -64.02258065 14.9291308 -73 15 C-73.042721 13.33388095 -73.04063832 11.66617115 -73 10 C-72 9 -72 9 -69.45005798 8.87974548 C-67.74795921 8.8830764 -67.74795921 8.8830764 -66.01147461 8.88647461 C-64.73022202 8.88655014 -63.44896942 8.88662567 -62.12889099 8.88670349 C-60.72004152 8.89181091 -59.31119244 8.89702691 -57.90234375 8.90234375 C-56.46887766 8.90420798 -55.03541093 8.90563186 -53.60194397 8.90663147 C-49.82240043 8.91045628 -46.0428951 8.92028623 -42.2633667 8.93133545 C-38.40930702 8.94155037 -34.55524118 8.94612926 -30.70117188 8.95117188 C-23.13409713 8.96190854 -15.56705391 8.97898451 -8 9 C-7.87367187 8.22269531 -7.74734375 7.44539063 -7.6171875 6.64453125 C-6.59908531 2.28215667 -4.52680569 0 0 0 Z " fill="#1D99AE" transform="translate(119,103)"/>
<path d="M0 0 C1.25031761 0.36623474 1.25031761 0.36623474 2.52589417 0.73986816 C5.1670883 1.5156956 7.80419877 2.30448988 10.44140625 3.09375 C12.23997972 3.62456154 14.03880564 4.15451847 15.83789062 4.68359375 C20.22954525 5.97710926 24.61758694 7.28226177 29.00390625 8.59375 C29.49890625 11.06875 29.49890625 11.06875 30.00390625 13.59375 C21.2031853 14.40197948 13.23299437 11.11436131 4.98535156 8.43896484 C3.0152034 7.80416065 1.04105692 7.18312953 -0.93359375 6.5625 C-2.09761719 6.18544922 -3.26164062 5.80839844 -4.4609375 5.41992188 C-11.52416159 3.7692347 -17.06119918 4.55969058 -23.85546875 6.81640625 C-24.56713196 7.04073837 -25.27879517 7.2650705 -26.01202393 7.49620056 C-28.26031645 8.20544914 -30.50353351 8.92909634 -32.74609375 9.65625 C-35.71643472 10.61731722 -38.69075735 11.56437295 -41.66796875 12.50390625 C-42.34406189 12.72780533 -43.02015503 12.95170441 -43.71673584 13.18238831 C-47.13202791 14.26033817 -49.59720712 14.98376332 -52.99609375 13.59375 C-52.66609375 11.94375 -52.33609375 10.29375 -51.99609375 8.59375 C-47.00121913 7.01445167 -42.00246446 5.44834786 -36.99975586 3.89404297 C-35.30039908 3.36407517 -33.6021342 2.83059229 -31.9050293 2.29345703 C-29.4577425 1.51957168 -27.00673664 0.75864089 -24.5546875 0 C-23.80336044 -0.24061157 -23.05203339 -0.48122314 -22.27793884 -0.72912598 C-14.23974961 -3.1870424 -7.91801389 -2.39621003 0 0 Z " fill="#1595AC" transform="translate(98.99609375,40.40625)"/>
<path d="M0 0 C1.09920273 0.00222061 2.19840546 0.00444122 3.33091736 0.00672913 C4.57212845 0.00680466 5.81333954 0.00688019 7.09216309 0.00695801 C8.45682311 0.01206541 9.82148274 0.01728142 11.18614197 0.02259827 C12.57476755 0.02446251 13.96339379 0.02588638 15.35202026 0.02688599 C19.01319686 0.03071065 22.67433402 0.04054048 26.335495 0.05158997 C30.06890835 0.06180519 33.80232805 0.06638384 37.53575134 0.07142639 C44.86584748 0.08216281 52.19591108 0.0992386 59.52598572 0.12025452 C60.08848572 2.05775452 60.08848572 2.05775452 60.52598572 4.12025452 C59.52598572 5.12025452 59.52598572 5.12025452 57.05197144 5.24050903 C55.95276871 5.23828842 54.85356598 5.23606781 53.72105408 5.23377991 C51.85923744 5.23366661 51.85923744 5.23366661 49.95980835 5.23355103 C48.59514832 5.22844362 47.2304887 5.22322762 45.86582947 5.21791077 C44.47720389 5.21604652 43.08857765 5.21462265 41.69995117 5.21362305 C38.03877457 5.20979838 34.37763742 5.19996855 30.71647644 5.18891907 C26.98306309 5.17870384 23.24964338 5.17412519 19.51622009 5.16908264 C12.18612395 5.15834622 4.85606035 5.14127043 -2.47401428 5.12025452 C-3.03651428 3.18275452 -3.03651428 3.18275452 -3.47401428 1.12025452 C-2.47401428 0.12025452 -2.47401428 0.12025452 0 0 Z " fill="#1291A8" transform="translate(58.47401428222656,53.87974548339844)"/>
<path d="M0 0 C0.0289337 3.79165074 0.04677601 7.58327327 0.0625 11.375 C0.07087891 12.45523438 0.07925781 13.53546875 0.08789062 14.6484375 C0.09111328 15.6796875 0.09433594 16.7109375 0.09765625 17.7734375 C0.10289307 18.72653809 0.10812988 19.67963867 0.11352539 20.66162109 C0 23 0 23 -1 25 C3.62 25.66 8.24 26.32 13 27 C12.67 27.66 12.34 28.32 12 29 C5.84062636 29.64160142 1.86489148 28.91402185 -3.37109375 25.58203125 C-6.51554272 22.52807002 -6.978054 19.67959436 -7.1171875 15.37109375 C-7.03726563 14.07300781 -6.95734375 12.77492188 -6.875 11.4375 C-6.81054688 10.13683594 -6.74609375 8.83617188 -6.6796875 7.49609375 C-5.91702131 3.57318434 -4.50213773 0 0 0 Z " fill="#379AAD" transform="translate(90,74)"/>
<path d="M0 0 C2.475 0.495 2.475 0.495 5 1 C5 11.56 5 22.12 5 33 C2.525 33.495 2.525 33.495 0 34 C0 22.78 0 11.56 0 0 Z " fill="#0495B1" transform="translate(65,64)"/>
<path d="M0 0 C4.31680904 1.35899544 5.85312985 3.47266231 8.625 6.9375 C10.25769593 8.92005935 11.9600185 10.54779422 13.875 12.25 C16.375 15.0625 16.375 15.0625 16.25 17.9375 C15.96125 18.63875 15.6725 19.34 15.375 20.0625 C9.90408749 19.77455724 7.23554539 16.52040841 3.625 12.8125 C3.03589844 12.23886719 2.44679688 11.66523437 1.83984375 11.07421875 C-3.52430859 5.66074087 -3.52430859 5.66074087 -3.625 1.0625 C-2.625 0.0625 -2.625 0.0625 0 0 Z " fill="#060709" transform="translate(121.625,108.9375)"/>
<path d="M0 0 C5.50808397 0.59015185 10.64878069 1.56663769 16 3 C16 3.66 16 4.32 16 5 C19.3 5.33 22.6 5.66 26 6 C24 8 24 8 22.15576172 8.24291992 C21.05385498 8.23675659 21.05385498 8.23675659 19.9296875 8.23046875 C19.115 8.22853516 18.3003125 8.22660156 17.4609375 8.22460938 C16.60757813 8.21236328 15.75421875 8.20011719 14.875 8.1875 C14.04484375 8.18685547 13.2146875 8.18621094 12.359375 8.18554688 C-1.91513541 8.08486459 -1.91513541 8.08486459 -4 6 C-6.33297433 5.95907063 -8.66705225 5.95758277 -11 6 C-10.67 5.34 -10.34 4.68 -10 4 C-9.34 4 -8.68 4 -8 4 C-8 3.34 -8 2.68 -8 2 C-5.36 2 -2.72 2 0 2 C0 1.34 0 0.68 0 0 Z " fill="#D6DADA" transform="translate(85,45)"/>
<path d="M0 0 C1.23298828 -0.02900391 2.46597656 -0.05800781 3.73632812 -0.08789062 C15.12660222 -0.1678008 15.12660222 -0.1678008 19.8125 4.3125 C19.8125 4.6425 19.8125 4.9725 19.8125 5.3125 C8.9225 5.3125 -1.9675 5.3125 -13.1875 5.3125 C-13.5175 3.9925 -13.8475 2.6725 -14.1875 1.3125 C-11.48926534 -1.38573466 -3.6273713 0.02800338 0 0 Z " fill="#2196AA" transform="translate(69.1875,102.6875)"/>
<path d="M0 0 C2.91517292 1.07401108 4.77810176 1.77810176 7 4 C7.13525391 6.06298828 7.13525391 6.06298828 6.9765625 8.5703125 C6.925 9.46621094 6.8734375 10.36210938 6.8203125 11.28515625 C6.75585938 12.22230469 6.69140625 13.15945312 6.625 14.125 C6.56828125 15.06988281 6.5115625 16.01476562 6.453125 16.98828125 C6.31142903 19.32626481 6.16000217 21.66320944 6 24 C4.02 24.99 4.02 24.99 2 26 C0 24 0 24 -0.22705078 21.56982422 C-0.21657715 20.5748291 -0.20610352 19.57983398 -0.1953125 18.5546875 C-0.18886719 17.47832031 -0.18242188 16.40195313 -0.17578125 15.29296875 C-0.15902344 14.16503906 -0.14226562 13.03710938 -0.125 11.875 C-0.11597656 10.73933594 -0.10695313 9.60367188 -0.09765625 8.43359375 C-0.07403098 5.62218701 -0.04109013 2.81119702 0 0 Z " fill="#1696AE" transform="translate(103,73)"/>
<path d="M0 0 C1.32 0 2.64 0 4 0 C4.33 1.65 4.66 3.3 5 5 C6.53720703 4.94779297 6.53720703 4.94779297 8.10546875 4.89453125 C9.46612936 4.86637965 10.8268078 4.83908096 12.1875 4.8125 C12.86103516 4.78736328 13.53457031 4.76222656 14.22851562 4.73632812 C18.70864748 4.67076522 21.39440999 5.33256351 25 8 C24.01 8.99 23.02 9.98 22 11 C21.38125 10.67 20.7625 10.34 20.125 10 C15.70177314 8.58456741 11.60280081 8.38678577 7 9 C3.61377224 10.6731975 3.61377224 10.6731975 1 13 C-0.32929144 14.00536663 -1.66189892 15.00638877 -3 16 C-2.69262339 13.52009745 -2.37935917 11.04119265 -2.0625 8.5625 C-1.97548828 7.85544922 -1.88847656 7.14839844 -1.79882812 6.41992188 C-1.11328125 1.11328125 -1.11328125 1.11328125 0 0 Z " fill="#061419" transform="translate(85,64)"/>
<path d="M0 0 C3.63 0 7.26 0 11 0 C11.33 0.66 11.66 1.32 12 2 C12.969375 1.979375 13.93875 1.95875 14.9375 1.9375 C18 2 18 2 19 3 C19.14115161 5.67058851 19.04247107 8.32432238 19 11 C18.31550781 10.68289062 17.63101563 10.36578125 16.92578125 10.0390625 C13.60249621 8.85883043 10.70245465 8.58802755 7.1875 8.375 C6.02605469 8.30023438 4.86460938 8.22546875 3.66796875 8.1484375 C2.78753906 8.09945312 1.90710938 8.05046875 1 8 C0.67 5.36 0.34 2.72 0 0 Z " fill="#D8D9D7" transform="translate(91,61)"/>
<path d="M0 0 C-1.93467942 0.83986084 -3.87285129 1.67168027 -5.8125 2.5 C-7.43091797 3.19609375 -7.43091797 3.19609375 -9.08203125 3.90625 C-12 5 -12 5 -15 5 C-15 5.66 -15 6.32 -15 7 C-13.68 7.33 -12.36 7.66 -11 8 C-13.57967797 8.86689178 -16.16276127 9.71873789 -18.75 10.5625 C-19.47960938 10.80935547 -20.20921875 11.05621094 -20.9609375 11.31054688 C-21.66992188 11.53935547 -22.37890625 11.76816406 -23.109375 12.00390625 C-23.75874023 12.21861572 -24.40810547 12.4333252 -25.07714844 12.65454102 C-27.33444538 13.06008636 -28.83473482 12.69296911 -31 12 C-30.67 10.35 -30.34 8.7 -30 7 C-25.75517657 5.62922001 -21.50343989 4.28128191 -17.25 2.9375 C-16.0434375 2.54755859 -14.836875 2.15761719 -13.59375 1.75585938 C-12.43359375 1.39169922 -11.2734375 1.02753906 -10.078125 0.65234375 C-8.47565918 0.14175415 -8.47565918 0.14175415 -6.84082031 -0.37915039 C-4.04347633 -0.99049843 -2.64412572 -0.98457424 0 0 Z " fill="#0F92AC" transform="translate(77,42)"/>
<path d="M0 0 C0.33 0 0.66 0 1 0 C0.96519531 1.42892578 0.96519531 1.42892578 0.9296875 2.88671875 C0.91164063 4.14097656 0.89359375 5.39523438 0.875 6.6875 C0.84019531 8.54955078 0.84019531 8.54955078 0.8046875 10.44921875 C0.99249961 13.86364296 1.41000385 16.00202746 3 19 C9.37790351 24.48796348 17.06623755 23.36758745 25 23 C20.80461408 26.32737504 17.5587709 27.3611584 12.125 27.28125 C7.30689688 26.64355988 3.95336106 24.0306606 0.6875 20.5 C0.130625 19.675 -0.42625 18.85 -1 18 C-1.4125 17.401875 -1.825 16.80375 -2.25 16.1875 C-3.9473276 11.23696118 -3.5038199 7.17557978 -1.5 2.5 C-1.005 1.675 -0.51 0.85 0 0 Z " fill="#BBC1C1" transform="translate(83,79)"/>
<path d="M0 0 C-0.57352893 3.87132028 -2.48704352 6.08172796 -5 9 C-3.68 9.33 -2.36 9.66 -1 10 C-24.43 10 -47.86 10 -72 10 C-72 9.67 -72 9.34 -72 9 C-50.88 9 -29.76 9 -8 9 C-7.67 7.35 -7.34 5.7 -7 4 C-3.75675676 0 -3.75675676 0 0 0 Z " fill="#66BAC6" transform="translate(119,103)"/>
<path d="M0 0 C1.4540625 0.0309375 1.4540625 0.0309375 2.9375 0.0625 C2.15375 0.68125 1.37 1.3 0.5625 1.9375 C-3.4611347 5.14740731 -3.4611347 5.14740731 -5.0625 10.0625 C-10.6725 10.0625 -16.2825 10.0625 -22.0625 10.0625 C-21.7325 9.0725 -21.4025 8.0825 -21.0625 7.0625 C-20.33804688 6.96453125 -19.61359375 6.8665625 -18.8671875 6.765625 C-12.17305871 5.73026641 -5.7704812 0.11776492 0 0 Z " fill="#C7D9DC" transform="translate(116.0625,101.9375)"/>
<path d="M0 0 C2.475 0.495 2.475 0.495 5 1 C5 11.56 5 22.12 5 33 C2.525 33.495 2.525 33.495 0 34 C0 22.78 0 11.56 0 0 Z M1 1 C1 11.23 1 21.46 1 32 C1.66 32 2.32 32 3 32 C4.43509221 29.12981559 4.11158506 26.66456277 4.09765625 23.4609375 C4.09443359 22.15898438 4.09121094 20.85703125 4.08789062 19.515625 C4.07953466 18.13541601 4.07106971 16.75520768 4.0625 15.375 C4.05748501 13.98698074 4.0529221 12.59895978 4.04882812 11.2109375 C4.03700976 7.80724868 4.02053434 4.40364561 4 1 C3.01 1 2.02 1 1 1 Z " fill="#1C8EA1" transform="translate(65,64)"/>
<path d="M0 0 C4.83627988 2.06678627 7.00431028 5.2087608 9 10 C9.54419765 13.41131302 9.72243155 16.61059199 9 20 C7.46875 21.79296875 7.46875 21.79296875 6 23 C5 20 5 20 5.125 16.1875 C5.19236847 12.11545025 4.05930655 9.54200727 2 6 C1.67 5.01 1.34 4.02 1 3 C0.34 3 -0.32 3 -1 3 C-0.67 2.01 -0.34 1.02 0 0 Z " fill="#090A0A" transform="translate(109,73)"/>
<path d="M0 0 C0.33 0.66 0.66 1.32 1 2 C-1.84804243 8.26569335 -5.8107992 12.796528 -12.3125 15.25 C-13.199375 15.4975 -14.08625 15.745 -15 16 C-15.33 14.68 -15.66 13.36 -16 12 C-15.48050781 11.79246094 -14.96101563 11.58492187 -14.42578125 11.37109375 C-8.71170564 8.8467609 -6.41484645 6.17105319 -3 1 C-2.01 0.67 -1.02 0.34 0 0 Z " fill="#03141A" transform="translate(117,93)"/>
<path d="M0 0 C0.66 0 1.32 0 2 0 C1.96519531 0.73605469 1.93039063 1.47210938 1.89453125 2.23046875 C1.5027057 9.68355136 1.5027057 9.68355136 5 16 C8.0723001 17.86628756 10.68862027 18.34383844 14.25 18.625 C15.14203125 18.69976562 16.0340625 18.77453125 16.953125 18.8515625 C17.96632813 18.92503906 17.96632813 18.92503906 19 19 C18.67 19.66 18.34 20.32 18 21 C11.84062636 21.64160142 7.86489148 20.91402185 2.62890625 17.58203125 C0.50177887 15.51611617 -0.19981508 13.85247268 -1 11 C-0.9765625 8.10546875 -0.9765625 8.10546875 -0.625 5.1875 C-0.51414062 4.21167969 -0.40328125 3.23585938 -0.2890625 2.23046875 C-0.19367188 1.49441406 -0.09828125 0.75835937 0 0 Z " fill="#0D1B22" transform="translate(84,82)"/>
<path d="M0 0 C3.93211531 0.7686842 7.84224074 1.61589157 11.75 2.5 C13.47476563 2.88671875 13.47476563 2.88671875 15.234375 3.28125 C18 4 18 4 19 5 C20.11375 5.144375 21.2275 5.28875 22.375 5.4375 C26 6 26 6 29 8 C30.88033997 8.59321869 32.77870208 9.13095819 34.6875 9.625 C35.68136719 9.88539062 36.67523438 10.14578125 37.69921875 10.4140625 C38.45847656 10.60742188 39.21773437 10.80078125 40 11 C39.67 11.66 39.34 12.32 39 13 C33.60363357 11.48007847 28.21030985 9.94995024 22.81958008 8.41015625 C20.98412377 7.88745834 19.14785862 7.36759228 17.31079102 6.85058594 C14.67508205 6.10829293 12.0424202 5.35596759 9.41015625 4.6015625 C8.58411392 4.3712735 7.75807159 4.1409845 6.90699768 3.90371704 C4.91976033 3.32880163 2.95658714 2.67186813 1 2 C0.67 1.34 0.34 0.68 0 0 Z " fill="#AED9DE" transform="translate(89,37)"/>
<path d="M0 0 C1.99954746 -0.04254356 4.00041636 -0.04080783 6 0 C7 1 7 1 7.09765625 2.84765625 C7.06510417 4.8984375 7.03255208 6.94921875 7 9 C6.30519531 8.68289062 5.61039063 8.36578125 4.89453125 8.0390625 C1.73811356 6.90598948 -0.97280167 6.59519989 -4.3125 6.375 C-5.38113281 6.30023438 -6.44976562 6.22546875 -7.55078125 6.1484375 C-8.35902344 6.09945312 -9.16726562 6.05046875 -10 6 C-10 5.67 -10 5.34 -10 5 C-5.545 4.505 -5.545 4.505 -1 4 C-0.67 2.68 -0.34 1.36 0 0 Z " fill="#A8C1C7" transform="translate(103,63)"/>
<path d="M0 0 C0 0.99 0 1.98 0 3 C-0.99 2.34 -1.98 1.68 -3 1 C-2.01 0.67 -1.02 0.34 0 0 Z M12 4 C12.33 4.66 12.66 5.32 13 6 C4.42 6 -4.16 6 -13 6 C-13 5.34 -13 4.68 -13 4 C-4.66743683 2.89465999 3.6727969 2.65122767 12 4 Z " fill="#98CED6" transform="translate(69,97)"/>
<path d="M0 0 C1.98 0.99 1.98 0.99 4 2 C3.67 2.33 3.34 2.66 3 3 C2.74964026 6.30516934 2.81478048 9.62396041 2.8125 12.9375 C2.80025391 13.87013672 2.78800781 14.80277344 2.77539062 15.76367188 C2.77345703 16.65505859 2.77152344 17.54644531 2.76953125 18.46484375 C2.76542236 19.285896 2.76131348 20.10694824 2.75708008 20.95288086 C2.8126012 23.22517224 2.8126012 23.22517224 5 25 C3.68 25 2.36 25 1 25 C0 24 0 24 -0.11352539 21.68334961 C-0.10828857 20.68311768 -0.10305176 19.68288574 -0.09765625 18.65234375 C-0.09443359 17.57275391 -0.09121094 16.49316406 -0.08789062 15.38085938 C-0.07951172 14.24455078 -0.07113281 13.10824219 -0.0625 11.9375 C-0.05798828 10.79732422 -0.05347656 9.65714844 -0.04882812 8.48242188 C-0.03699747 5.65489649 -0.0205141 2.8274736 0 0 Z " fill="#3D9EB1" transform="translate(103,73)"/>
<path d="M0 0 C0.99 0.33 1.98 0.66 3 1 C5.57265818 1.07029121 8.11641431 1.09370832 10.6875 1.0625 C11.38939453 1.05798828 12.09128906 1.05347656 12.81445312 1.04882812 C14.54300538 1.03706927 16.27151365 1.01913454 18 1 C13.24643322 4.77007021 9.03502529 5.68192376 3 5 C-0.5 3.5 -0.5 3.5 -3 2 C-2.01 1.34 -1.02 0.68 0 0 Z " fill="#28838C" transform="translate(90,101)"/>
<path d="M0 0 C-1.93467942 0.83986084 -3.87285129 1.67168027 -5.8125 2.5 C-7.43091797 3.19609375 -7.43091797 3.19609375 -9.08203125 3.90625 C-12 5 -12 5 -15 5 C-15 5.66 -15 6.32 -15 7 C-13.68 7.33 -12.36 7.66 -11 8 C-13.31 8.33 -15.62 8.66 -18 9 C-17.67 8.01 -17.34 7.02 -17 6 C-18.98 6 -20.96 6 -23 6 C-19.52819555 3.6854637 -16.00204877 2.55044236 -12.0625 1.3125 C-11.34642578 1.07466797 -10.63035156 0.83683594 -9.89257812 0.59179688 C-6.16030285 -0.58772664 -3.73134196 -1.18041207 0 0 Z " fill="#2B98AA" transform="translate(77,42)"/>
<path d="M0 0 C0.99 0 1.98 0 3 0 C5.24828052 4.49656104 5.16682272 8.07872966 5 13 C4.34 12.01 3.68 11.02 3 10 C2.01 10 1.02 10 0 10 C0 6.7 0 3.4 0 0 Z " fill="#C2C2C2" transform="translate(110,80)"/>
<path d="M0 0 C0.66 0 1.32 0 2 0 C3.69832609 5.83799592 4.25287193 10.93107371 4 17 C1.27475359 14.39324256 0.03732993 13.07808847 -0.09765625 9.1796875 C-0.08605469 8.08914062 -0.07445313 6.99859375 -0.0625 5.875 C-0.05347656 4.77929688 -0.04445313 3.68359375 -0.03515625 2.5546875 C-0.02355469 1.71164063 -0.01195313 0.86859375 0 0 Z " fill="#0E8593" transform="translate(85,81)"/>
<path d="M0 0 C0 0.33 0 0.66 0 1 C-5.50808397 0.40984815 -10.64878069 -0.56663769 -16 -2 C-16 -1.34 -16 -0.68 -16 0 C-21.94 0.495 -21.94 0.495 -28 1 C-18.79697922 -5.13534719 -9.75904814 -3.35967231 0 0 Z " fill="#B4DAE4" transform="translate(101,47)"/>
<path d="M0 0 C1.32 0 2.64 0 4 0 C4.66 1.98 5.32 3.96 6 6 C2.535 7.485 2.535 7.485 -1 9 C-1.09765625 2.84765625 -1.09765625 2.84765625 -1 1 C-0.67 0.67 -0.34 0.34 0 0 Z " fill="#228EA2" transform="translate(85,64)"/>
<path d="M0 0 C3.96 0 7.92 0 12 0 C12 0.66 12 1.32 12 2 C13.32 2.33 14.64 2.66 16 3 C10.72 3 5.44 3 0 3 C0 2.01 0 1.02 0 0 Z " fill="#0695AE" transform="translate(57,104)"/>
<path d="M0 0 C0.66 0.33 1.32 0.66 2 1 C1.67 2.98 1.34 4.96 1 7 C1.99 6.67 2.98 6.34 4 6 C4 6.99 4 7.98 4 9 C2.35 9 0.7 9 -1 9 C-1.33 9.66 -1.66 10.32 -2 11 C-3.32 11 -4.64 11 -6 11 C-4.50120132 7.88711043 -2.78832621 4.95462591 -1 2 C-0.67 1.34 -0.34 0.68 0 0 Z " fill="#BCC0BF" transform="translate(120,101)"/>
<path d="M0 0 C4.62 0 9.24 0 14 0 C13.01 0.33 12.02 0.66 11 1 C11 1.66 11 2.32 11 3 C7.37 3 3.74 3 0 3 C0 2.01 0 1.02 0 0 Z " fill="#06070C" transform="translate(91,106)"/>
<path d="M0 0 C-2.61747716 3.92621574 -4.48539958 3.94659324 -9 5 C-10.99488234 5.36270588 -12.9937811 5.70640699 -15 6 C-15 5.34 -15 4.68 -15 4 C-5.77448747 -0.59225513 -5.77448747 -0.59225513 0 0 Z " fill="#0396AF" transform="translate(77,43)"/>
<path d="M0 0 C1.65 0 3.3 0 5 0 C5 0.66 5 1.32 5 2 C7.31 2 9.62 2 12 2 C12 2.99 12 3.98 12 5 C13.65 4.67 15.3 4.34 17 4 C16.67 4.66 16.34 5.32 16 6 C11.26794302 6.44363034 7.1843359 5.12718331 3 3 C1.2578125 1.39453125 1.2578125 1.39453125 0 0 Z " fill="#0396B1" transform="translate(98,43)"/>
<path d="M0 0 C-0.54074373 3.78520613 -2.07572746 5.59177555 -5 8 C-5.99 8 -6.98 8 -8 8 C-7.32253522 3.25774652 -4.9532836 0 0 0 Z " fill="#01050A" transform="translate(119,103)"/>
<path d="M0 0 C0.66 1.32 1.32 2.64 2 4 C-0.64 5.98 -3.28 7.96 -6 10 C-5.72510809 5.96825194 -5.46508424 4.43105369 -2.4375 1.625 C-1.633125 1.08875 -0.82875 0.5525 0 0 Z " fill="#001417" transform="translate(88,70)"/>
<path d="M0 0 C1.22589844 0.01353516 1.22589844 0.01353516 2.4765625 0.02734375 C3.41628906 0.04474609 3.41628906 0.04474609 4.375 0.0625 C4.375 1.0525 4.375 2.0425 4.375 3.0625 C1.075 3.3925 -2.225 3.7225 -5.625 4.0625 C-5.955 3.0725 -6.285 2.0825 -6.625 1.0625 C-4.21954362 -0.14022819 -2.67503047 -0.03821472 0 0 Z " fill="#090A0B" transform="translate(95.625,68.9375)"/>
<path d="M0 0 C0.33 0.66 0.66 1.32 1 2 C0.22265625 3.7265625 0.22265625 3.7265625 -0.9375 5.625 C-1.618125 6.73875 -2.29875 7.8525 -3 9 C-4.65 9 -6.3 9 -8 9 C-7.23997083 7.68121422 -6.46656347 6.3701316 -5.6875 5.0625 C-5.25824219 4.33160156 -4.82898438 3.60070312 -4.38671875 2.84765625 C-3 1 -3 1 0 0 Z " fill="#191919" transform="translate(117,93)"/>
<path d="M0 0 C0.32434322 4.64891954 -0.223578 7.22406608 -3 11 C-3.33 11 -3.66 11 -4 11 C-4 7.7 -4 4.4 -4 1 C-1 0 -1 0 0 0 Z " fill="#D4D2D2" transform="translate(114,89)"/>
<path d="M0 0 C4.55737263 0.43820891 7.57653445 0.85041169 11 4 C9.02 4.99 9.02 4.99 7 6 C1.125 2.25 1.125 2.25 0 0 Z " fill="#021119" transform="translate(82,102)"/>
<path d="M0 0 C2.31 0.33 4.62 0.66 7 1 C7.33 2.65 7.66 4.3 8 6 C6.741875 6.04125 5.48375 6.0825 4.1875 6.125 C3.47980469 6.14820313 2.77210937 6.17140625 2.04296875 6.1953125 C0 6 0 6 -3 4 C-0.03 4.33 2.94 4.66 6 5 C5.67 4.34 5.34 3.68 5 3 C2.47266765 2.34444881 2.47266765 2.34444881 0 2 C0 1.34 0 0.68 0 0 Z " fill="#3699AC" transform="translate(121,48)"/>
<path d="M0 0 C0.94875 0.04125 1.8975 0.0825 2.875 0.125 C2.09125 0.74375 1.3075 1.3625 0.5 2 C-2.09337647 4.02358661 -2.09337647 4.02358661 -4.125 6.125 C-7.25 6.25 -7.25 6.25 -10.125 6.125 C-9.34125 5.50625 -8.5575 4.8875 -7.75 4.25 C-2.6299505 0.10519802 -2.6299505 0.10519802 0 0 Z " fill="#398D96" transform="translate(116.125,101.875)"/>
<path d="M0 0 C1.98 0.495 1.98 0.495 4 1 C4 2.98 4 4.96 4 7 C1.525 6.01 1.525 6.01 -1 5 C-0.67 3.35 -0.34 1.7 0 0 Z " fill="#2893A9" transform="translate(105,64)"/>
<path d="M0 0 C0.99 0.66 1.98 1.32 3 2 C-2.40744018 2.77249145 -7.53862186 3.09752461 -13 3 C-8.52123332 0.01415555 -5.31831234 -0.28490959 0 0 Z " fill="#2697AD" transform="translate(90,38)"/>
<path d="M0 0 C-0.33 0.66 -0.66 1.32 -1 2 C-1.99 2 -2.98 2 -4 2 C-4.33 2.66 -4.66 3.32 -5 4 C-3.35 4 -1.7 4 0 4 C-3 6 -3 6 -5.1875 5.625 C-5.785625 5.41875 -6.38375 5.2125 -7 5 C-6.67 3.35 -6.34 1.7 -6 0 C-3 -1 -3 -1 0 0 Z " fill="#2B99AB" transform="translate(53,49)"/>
<path d="M0 0 C2.31 0.33 4.62 0.66 7 1 C6.67 2.32 6.34 3.64 6 5 C4.35 5 2.7 5 1 5 C0.67 3.35 0.34 1.7 0 0 Z " fill="#CBDBDD" transform="translate(103,97)"/>
<path d="M0 0 C1.32 0 2.64 0 4 0 C4 0.66 4 1.32 4 2 C5.32 2.33 6.64 2.66 8 3 C4.37 3 0.74 3 -3 3 C-2.01 2.01 -1.02 1.02 0 0 Z " fill="#C2DDE6" transform="translate(63,50)"/>
<path d="M0 0 C-0.33 0.66 -0.66 1.32 -1 2 C-4.3 1.67 -7.6 1.34 -11 1 C-11 0.67 -11 0.34 -11 0 C-3.375 -1.125 -3.375 -1.125 0 0 Z " fill="#C0BFC0" transform="translate(106,109)"/>
<path d="M0 0 C-2.35968744 2.09749995 -3.54616994 2.96905704 -6.75 3.1875 C-7.86375 3.0946875 -7.86375 3.0946875 -9 3 C-6.38997624 -0.48003168 -4.1689578 -0.27793052 0 0 Z " fill="#3E94A0" transform="translate(108,102)"/>
<path d="M0 0 C-0.99 1.32 -1.98 2.64 -3 4 C-3 3.01 -3 2.02 -3 1 C-5.31 1.33 -7.62 1.66 -10 2 C-6.19832777 -0.53444815 -4.31588991 -1.33941411 0 0 Z " fill="#B3DFE5" transform="translate(57,54)"/>
<path d="M0 0 C0.99 0.33 1.98 0.66 3 1 C2.01 2.485 2.01 2.485 1 4 C-0.65 3.67 -2.3 3.34 -4 3 C-2.1875 1.4375 -2.1875 1.4375 0 0 Z " fill="#0396B0" transform="translate(58,47)"/>
</svg>
